<svg width="12px" height="16px" viewBox="0 0 12 16" version="1.1" xmlns="http://www.w3.org/2000/svg" xmlns:xlink="http://www.w3.org/1999/xlink">
    <g id="Page-1" stroke="none" stroke-width="1" fill="none" fill-rule="evenodd">
        <g id="Artboard" transform="translate(-3.000000, 0.000000)">
            <g id="coffee" transform="translate(3.000000, 0.000000)">
                <path d="M10.8311029,2.47958115 C10.7556248,2.42931937 10.94432,2.12774869 10.9254505,1.92670157 C10.8877114,1.6921466 10.359365,1.65863874 10.2084088,1.57486911 C10.0763222,1.5078534 10.1895393,1.0052356 10.0574527,0.7539267 C9.71780139,0.15078534 6.81189573,0.0167539267 5.66085517,0 C4.45320606,0 1.41521379,0.385340314 1.2076491,0.95497382 C1.15104055,1.10575916 1.2076491,1.60837696 1.13217103,1.67539267 C0.94347586,1.82617801 0.396259862,1.85968586 0.33965131,2.12774869 C0.301912275,2.29528796 0.41512938,2.52984293 0.33965131,2.68062827 C0.301912275,2.74764398 0,2.84816754 0,3.06596859 C0,3.36753927 0.433998896,3.33403141 0.452868413,3.4513089 C0.698172138,4.59057592 1.05669296,7.28795812 1.05669296,7.28795812 C1.05669296,7.28795812 1.83034317,14.5089005 2.07564689,14.843979 C2.60399338,15.5811518 4.09468525,16 5.77407228,16 C7.17041655,16 8.43467421,15.6146597 8.96302068,15.0450262 C9.2083244,14.7937173 10.2650174,4.0712042 10.4914516,3.38429319 C10.5480601,3.23350785 11.0386676,3.28376963 11.1518847,3.03246073 C11.2839713,2.73089005 11.019798,2.61361256 10.8311029,2.47958115 Z" id="Shape-outline" fill="#000000"></path>
                <g id="body" transform="translate(0.468750, 0.406250)" fill="#FFFFFF">
                    <path d="M9.75610212,2.72069682 C9.75610212,2.70383106 9.73754476,2.70383106 9.75610212,2.72069682 C6.99105756,3.41219295 2.46306515,3.34472991 0.384642394,2.7712941 C0.384642394,2.7712941 0.384642394,2.7712941 0.384642394,2.7712941 C0.254740973,2.72069682 0.106282205,2.6869653 0.0691675128,2.65323379 C-0.0236192173,2.58577075 0.0691675128,2.46771043 0.106282205,2.38338164 C0.106282205,2.38338164 0.106282205,2.38338164 0.106282205,2.38338164 C2.09191823,3.27726687 8.4570879,3.00741473 10.1086917,2.33278436 C10.1086917,2.33278436 10.1086917,2.33278436 10.127249,2.3159186 C10.4427239,2.50144195 10.071577,2.63636803 9.75610212,2.72069682 Z" id="Path"></path>
                    <path d="M1.18260827,0.899194828 C1.83211538,-0.197079519 8.60554667,-0.298274075 9.23649644,0.781134512 C9.2550538,0.798000272 9.2550538,0.831731792 9.2550538,0.848597552 C8.86534953,1.77621431 1.31250969,1.72561703 1.16405093,1.00038938 C1.16405093,0.966657864 1.16405093,0.916060588 1.18260827,0.899194828 Z" id="Path"></path>
                    <path d="M0.124839551,2.01233493 C0.143396897,1.72561703 0.77434666,1.72561703 1.08982154,1.59069096 C1.08982154,1.70875127 1.08982154,1.80994582 1.08982154,1.84367734 C1.38673908,2.45084467 8.53131728,2.50144195 9.2550538,1.70875127 C9.29216847,1.67501975 9.31072582,1.55695944 9.31072582,1.42203336 C9.31072582,1.42203336 9.31072582,1.43889912 9.32928318,1.43889912 C9.589086,1.55695944 10.2385931,1.55695944 10.1829211,1.92800614 C10.1829211,1.9448719 10.1643637,1.96173766 10.1458064,1.99546917 C9.8303315,2.24845556 7.02817227,2.72069682 4.65283198,2.65323379 C1.73932865,2.56890499 0.217626281,2.28218708 0.124839551,2.04606645 C0.124839551,2.02920069 0.124839551,2.02920069 0.124839551,2.01233493 Z" id="Path"></path>
                    <path d="M7.97459689,14.4423994 C6.93538553,15.3531504 3.22391633,15.2350901 2.22181965,14.2906076 C2.14759027,14.2231446 1.98057415,13.1774675 2.07336088,13.2786621 C3.00122818,14.3749364 7.95603958,13.9701582 8.10449834,13.3798566 C8.10449834,13.3629909 8.10449834,13.3461251 8.12305566,13.3123936 C8.03026896,14.0038897 7.97459689,14.4423994 7.97459689,14.4423994 Z" id="Path"></path>
                    <path d="M8.80967746,7.47684093 C8.80967746,7.47684093 8.80967746,7.47684093 8.80967746,7.47684093 C7.21374571,8.65744405 1.49808316,8.33699465 1.20116562,7.32504909 C1.01559216,6.68415021 0.737231968,3.85070269 0.644445238,3.09174352 C2.51873718,3.5977163 7.64056469,3.61458206 9.42206988,3.05801201 C9.29216847,3.71577661 9.05092296,5.5035471 8.80967746,7.47684093 Z" id="Path"></path>
                </g>
                <path d="M3.68750469,9.63621547 C3.67134481,9.64385734 3.65720492,9.65532016 3.64656634,9.66978512 C3.63592775,9.68425005 3.62892515,9.70117134 3.62623183,9.71904785 C3.62353852,9.73692436 3.62528917,9.75521028 3.63121446,9.77226801 L5.21622868,12.9844449 C5.2478751,13.0543134 5.29864402,13.1135379 5.36247553,13.1551588 C5.42630704,13.1966432 5.50064244,13.21875 5.57645918,13.21875 C5.65227592,13.21875 5.72661132,13.1966432 5.79044283,13.1551588 C5.85427434,13.1136743 5.90504326,13.0544499 5.93668968,12.9844449 L7.59375,9.62625375 L7.30556561,9.62625375 L6.18891839,11.8894745 C6.16400523,11.9350528 6.12751087,11.9731257 6.08307119,11.9995993 C6.03876621,12.0260729 5.98813194,12.0401285 5.93668968,12.0401285 C5.88524742,12.0401285 5.83461315,12.0262094 5.79030817,11.9995993 C5.74600319,11.9731257 5.70937413,11.9350528 5.68446101,11.8894745 L4.60376947,9.69926086 C4.59676689,9.68670638 4.58787896,9.67524359 4.57764434,9.66528188 C4.56727511,9.65532016 4.5555592,9.64699596 4.54276598,9.64044579 C4.52997275,9.6340321 4.51637153,9.62952885 4.50223162,9.62707253 C4.48809172,9.6246162 4.47381716,9.62434327 4.4596773,9.62625375 L3.73921628,9.62625375 C3.72144042,9.62516205 3.70366456,9.62871008 3.68750469,9.63621547 Z" id="Path" fill="#FFFFFF"></path>
            </g>
        </g>
    </g>
</svg>