<svg width="37px" height="54px" viewBox="0 0 37 54" version="1.1" xmlns="http://www.w3.org/2000/svg" xmlns:xlink="http://www.w3.org/1999/xlink">
    <g id="Page-1" stroke="none" stroke-width="1" fill="none" fill-rule="evenodd">
        <g id="1coffee" transform="translate(-32.000000, -23.000000)">
            <g id="coffee" transform="translate(32.000000, 23.000000)">
                <path d="M35.8213012,8.36858639 C35.5716754,8.19895288 36.1957399,7.18115183 36.1333335,6.5026178 C36.0085206,5.71099476 34.26114,5.59790576 33.7618884,5.31518325 C33.3250433,5.08900524 33.699482,3.39267016 33.2626368,2.54450262 C32.1393208,0.508900524 22.5287278,0.0565445026 18.7219344,0 C14.7279218,0 4.68048361,1.30052356 3.99401268,3.22303665 C3.80679333,3.73193717 3.99401268,5.42827225 3.74438689,5.65445026 C3.12032241,6.16335079 1.31053541,6.27643979 1.12331607,7.18115183 C0.99850317,7.74659686 1.37294186,8.5382199 1.12331607,9.04712042 C0.99850317,9.27329843 0,9.61256545 0,10.347644 C0,11.365445 1.43534831,11.252356 1.49775475,11.6481675 C2.30903858,15.4931937 3.49476109,24.5968586 3.49476109,24.5968586 C3.49476109,24.5968586 6.05342547,48.9675393 6.86470929,50.0984293 C8.61208984,52.5863874 13.5421992,54 19.0963731,54 C23.7144503,54 27.8956823,52.6994764 29.6430629,50.7769634 C30.4543467,49.9287958 33.9491078,13.7403141 34.6979851,11.4219895 C34.8852045,10.913089 36.5077721,11.0827225 36.8822108,10.234555 C37.319056,9.21675393 36.4453657,8.82094241 35.8213012,8.36858639 Z" id="Shape-outline" fill="#000000" fill-rule="nonzero"></path>
                <g id="body" transform="translate(1.000000, 1.000000)" fill="#FFFFFF" fill-rule="nonzero">
                    <path d="M33.0739207,9.12146597 C33.0739207,9.06492147 33.0115142,9.06492147 33.0739207,9.12146597 C23.7753599,11.4397906 8.54818656,11.2136126 1.55866437,9.29109948 C1.55866437,9.29109948 1.55866437,9.29109948 1.55866437,9.29109948 C1.12181924,9.12146597 0.622567651,9.00837696 0.497754755,8.89528796 C0.185722514,8.66910995 0.497754755,8.27329843 0.622567651,7.99057592 C0.622567651,7.99057592 0.622567651,7.99057592 0.622567651,7.99057592 C7.3000576,10.9874346 28.7054693,10.0827225 34.2596432,7.82094241 C34.2596432,7.82094241 34.2596432,7.82094241 34.3220496,7.76439791 C35.3829592,8.38638743 34.1348303,8.83874346 33.0739207,9.12146597 Z" id="Path"></path>
                    <path d="M4.24214164,3.01465969 C6.42636733,-0.660732984 29.2047209,-1 31.3265401,2.61884817 C31.3889466,2.67539267 31.3889466,2.78848168 31.3889466,2.84502618 C30.0784112,5.95497382 4.67898678,5.78534031 4.17973519,3.3539267 C4.17973519,3.2408377 4.17973519,3.07120419 4.24214164,3.01465969 Z" id="Path"></path>
                    <path d="M0.684974099,6.74659686 C0.747380547,5.78534031 2.86919978,5.78534031 3.9301094,5.33298429 C3.9301094,5.72879581 3.9301094,6.06806283 3.9301094,6.18115183 C4.92861257,8.21675393 28.9550951,8.38638743 31.3889466,5.72879581 C31.5137595,5.61570681 31.5761659,5.21989529 31.5761659,4.76753927 C31.5761659,4.76753927 31.5761659,4.82408377 31.6385724,4.82408377 C32.5122626,5.21989529 34.6964883,5.21989529 34.509269,6.46387435 C34.509269,6.52041885 34.4468625,6.57696335 34.3844561,6.69005236 C33.3235465,7.5382199 23.9001728,9.12146597 15.9121474,8.89528796 C6.11433508,8.61256545 0.997006339,7.6513089 0.684974099,6.85968586 C0.684974099,6.80314136 0.684974099,6.80314136 0.684974099,6.74659686 Z" id="Path"></path>
                    <path d="M27.0829016,48.4198953 C23.5881406,51.4732984 11.1068509,51.0774869 7.73690274,47.9109948 C7.48727694,47.6848168 6.92561891,44.1790576 7.23765115,44.5183246 C10.3579736,48.1937173 27.0204952,46.8366492 27.5197468,44.8575916 C27.5197468,44.8010471 27.5197468,44.7445026 27.5821532,44.6314136 C27.270121,46.9497382 27.0829016,48.4198953 27.0829016,48.4198953 Z" id="Path"></path>
                    <path d="M29.8911918,25.0670157 C29.8911918,25.0670157 29.8911918,25.0670157 29.8911918,25.0670157 C24.5242373,29.0251309 5.30305126,27.9507853 4.30454809,24.5581152 C3.68048361,22.4094241 2.74438689,12.9099476 2.43235465,10.365445 C8.73540591,12.0617801 25.9595856,12.1183246 31.9506046,10.252356 C31.5137595,12.4575916 30.7024756,18.4513089 29.8911918,25.0670157 Z" id="Path"></path>
                </g>
                <path d="M12.2159449,32.038548 C12.1601148,32.0648135 12.1112635,32.1042116 12.0745087,32.1539283 C12.0377539,32.203645 12.0135608,32.2618042 12.0042558,32.3232465 C11.9949508,32.3846889 12.0009991,32.4475383 12.0214701,32.5061665 L17.4974714,43.5465582 C17.6068054,43.7866992 17.7822049,43.9902563 18.0027337,44.1333091 C18.2232626,44.2758929 18.480081,44.351875 18.7420172,44.351875 C19.0039534,44.351875 19.2607718,44.2758929 19.4813006,44.1333091 C19.7018295,43.9907253 19.877229,43.7871683 19.9865629,43.5465582 L25.7114734,32.0043092 L24.7158368,32.0043092 L20.8579776,39.7830974 C20.7719062,39.9397519 20.6458233,40.0706101 20.4922905,40.161601 C20.339223,40.252592 20.1642887,40.3009016 19.9865629,40.3009016 C19.8088372,40.3009016 19.6339029,40.253061 19.4808354,40.161601 C19.3277679,40.0706101 19.2012197,39.9397519 19.1151483,39.7830974 L15.381511,32.2552378 C15.357318,32.2120875 15.3266114,32.1726893 15.2912524,32.1384505 C15.2554281,32.1042116 15.2149512,32.0756011 15.1707524,32.0530878 C15.1265536,32.0310436 15.0795633,32.0155658 15.0307119,32.0071233 C14.9818606,31.9986809 14.932544,31.9977428 14.8836927,32.0043092 L12.3946012,32.0043092 C12.3331881,32.000557 12.271775,32.0127516 12.2159449,32.038548 Z" id="Path" fill="#FFFFFF"></path>
            </g>
        </g>
    </g>
</svg>