<svg width="95px" height="76px" viewBox="0 0 95 76" version="1.1" xmlns="http://www.w3.org/2000/svg" xmlns:xlink="http://www.w3.org/1999/xlink">
    <g id="Page-1" stroke="none" stroke-width="1" fill="none" fill-rule="evenodd">
        <g id="3coffee" transform="translate(-3.000000, -13.000000)">
            <g id="Group" transform="translate(3.000000, 13.000000)">
                <g id="coffee-copy" transform="translate(27.000000, 18.000000)">
                    <path d="M30.9805848,7.28376963 C30.7646923,7.13612565 31.3044237,6.25026178 31.2504506,5.65968586 C31.1425043,4.97068063 29.6312562,4.87225131 29.1994711,4.62617801 C28.8216591,4.42931937 29.1454979,2.95287958 28.7676859,2.21465969 C27.7961693,0.442931937 19.4843051,0.0492146597 16.1919433,0 C12.7376621,0 4.04798582,1.13193717 3.45428124,2.8052356 C3.2923618,3.24816754 3.45428124,4.72460733 3.23838866,4.92146597 C2.69865722,5.36439791 1.13343603,5.46282723 0.971516598,6.25026178 C0.863570309,6.74240838 1.18740917,7.43141361 0.971516598,7.87434555 C0.863570309,8.07120419 0,8.36649215 0,9.00628272 C0,9.8921466 1.24138232,9.79371728 1.29535546,10.1382199 C1.99700634,13.4848168 3.02249608,21.408377 3.02249608,21.408377 C3.02249608,21.408377 5.235395,42.6198953 5.93704587,43.6041885 C7.44829391,45.7696335 11.7121723,47 16.5157822,47 C20.5097948,47 24.1259955,45.8680628 25.6372435,44.1947644 C26.3388944,43.4565445 29.3613905,11.9591623 30.0090682,9.94136126 C30.1709877,9.49842932 31.5742894,9.6460733 31.8981283,8.9078534 C32.2759403,8.02198953 31.5203163,7.67748691 30.9805848,7.28376963 Z" id="Shape-outline" fill="#000000" fill-rule="nonzero"></path>
                    <g id="body" transform="translate(1.000000, 1.000000)" fill="#FFFFFF" fill-rule="nonzero">
                        <path d="M28.3490749,7.86950005 C28.3490749,7.82071656 28.2955836,7.82071656 28.3490749,7.86950005 C20.3788799,9.86962324 7.32701705,9.67448927 1.33599803,8.01585053 C1.33599803,8.01585053 1.33599803,8.01585053 1.33599803,8.01585053 C0.961559345,7.86950005 0.533629415,7.77193307 0.426646933,7.67436608 C0.159190726,7.47923211 0.426646933,7.13774766 0.533629415,6.8938302 C0.533629415,6.8938302 0.533629415,6.8938302 0.533629415,6.8938302 C6.25719223,9.4793553 24.604688,8.69881942 29.3654084,6.74747972 C29.3654084,6.74747972 29.3654084,6.74747972 29.4188997,6.69869623 C30.3282508,7.23531465 29.258426,7.62558259 28.3490749,7.86950005 Z" id="Path"></path>
                        <path d="M3.63612141,2.60088287 C5.50831485,-0.570044143 25.0326179,-0.862745098 26.8513201,2.25939842 C26.9048113,2.30818191 26.9048113,2.4057489 26.9048113,2.45453239 C25.7814953,5.13762447 4.0105601,4.991274 3.58263017,2.89358382 C3.58263017,2.79601684 3.58263017,2.64966636 3.63612141,2.60088287 Z" id="Path"></path>
                        <path d="M0.587120656,5.82059337 C0.640611897,4.991274 2.4593141,4.991274 3.3686652,4.60100606 C3.3686652,4.9424905 3.3686652,5.23519146 3.3686652,5.33275844 C4.22452506,7.08896417 24.8186529,7.23531465 26.9048113,4.9424905 C27.0117938,4.84492352 27.0652851,4.50343907 27.0652851,4.11317113 C27.0652851,4.11317113 27.0652851,4.16195462 27.1187763,4.16195462 C27.8676537,4.50343907 29.7398471,4.50343907 29.5793734,5.57667591 C29.5793734,5.6254594 29.5258822,5.67424289 29.4723909,5.77180988 C28.5630398,6.50356226 20.4858624,7.86950005 13.6389835,7.67436608 C5.24085864,7.43044862 0.854576862,6.60112925 0.587120656,5.91816035 C0.587120656,5.86937686 0.587120656,5.86937686 0.587120656,5.82059337 Z" id="Path"></path>
                        <path d="M23.2139157,41.7740273 C20.2184062,44.4083359 9.52015794,44.0668515 6.63163092,41.3349759 C6.41766595,41.1398419 5.93624478,38.1152654 6.20370099,38.4079663 C8.87826305,41.5788933 23.1604245,40.4080895 23.5883544,38.7006673 C23.5883544,38.6518838 23.5883544,38.6031003 23.6418456,38.5055333 C23.3743894,40.5056565 23.2139157,41.7740273 23.2139157,41.7740273 Z" id="Path"></path>
                        <path d="M25.6210216,21.6264449 C25.6210216,21.6264449 25.6210216,21.6264449 25.6210216,21.6264449 C21.0207748,25.0412894 4.54547251,24.114403 3.68961265,21.1873935 C3.15470024,19.3336208 2.35233162,11.137994 2.08487541,8.94273689 C7.48749078,10.4062417 22.2510734,10.4550252 27.3862325,8.8451699 C27.0117938,10.7477261 26.3164077,15.9187763 25.6210216,21.6264449 Z" id="Path"></path>
                    </g>
                    <path d="M10.1889905,28.0343291 C10.1401292,28.0577198 10.0973755,28.092806 10.0652085,28.1370813 C10.0330414,28.1813567 10.0118682,28.2331505 10.0037246,28.2878682 C9.99558104,28.3425858 10.0008744,28.3985566 10.0187902,28.4507681 L14.8112741,38.2828226 C14.9069609,38.496681 15.060467,38.6779594 15.2534693,38.8053555 C15.4464716,38.9323339 15.6712338,39 15.900475,39 C16.1297162,39 16.3544784,38.9323339 16.5474807,38.8053555 C16.740483,38.6783771 16.8939891,38.4970987 16.9896759,38.2828226 L22,28.0038375 L21.1286393,28.0038375 L17.7523201,34.9312612 C17.6769922,35.0707703 17.566647,35.1873064 17.4322783,35.2683387 C17.2983167,35.349371 17.1452179,35.3923933 16.9896759,35.3923933 C16.8341339,35.3923933 16.681035,35.3497887 16.5470735,35.2683387 C16.413112,35.1873064 16.3023596,35.0707703 16.2270317,34.9312612 L12.959429,28.2273028 C12.9382557,28.1888752 12.911382,28.153789 12.8804365,28.1232975 C12.8490838,28.092806 12.8136593,28.0673267 12.7749774,28.0472775 C12.7362955,28.027646 12.6951705,28.0138622 12.6524169,28.0063437 C12.6096632,27.9988252 12.5665023,27.9979899 12.5237486,28.0038375 L10.3453469,28.0038375 C10.2915994,28.000496 10.2378519,28.011356 10.1889905,28.0343291 Z" id="Path" fill="#FFFFFF"></path>
                </g>
                <g id="coffee-copy-3" transform="translate(0.000000, 33.000000)">
                    <path d="M28.076155,6.66387435 C27.8805024,6.52879581 28.369634,5.71832461 28.3207208,5.17801047 C28.2228945,4.54764398 26.853326,4.45759162 26.4620207,4.23246073 C26.1196285,4.05235602 26.4131075,2.70157068 26.0707154,2.02617801 C25.1902784,0.405235602 17.6576515,0.045026178 14.6739486,0 C11.5435062,0 3.66848715,1.03560209 3.13044237,2.56649215 C2.98370288,2.97172775 3.13044237,4.32251309 2.93478972,4.5026178 C2.4456581,4.9078534 1.0271764,4.99790576 0.880436917,5.71832461 C0.782610593,6.16858639 1.07608956,6.79895288 0.880436917,7.20418848 C0.782610593,7.38429319 0,7.65445026 0,8.23979058 C0,9.05026178 1.12500273,8.96020942 1.17391589,9.27539267 C1.809787,12.3371728 2.73913707,19.5863874 2.73913707,19.5863874 C2.73913707,19.5863874 4.74457672,38.9926702 5.38044782,39.8931937 C6.75001636,41.8743455 10.6141562,43 14.9674276,43 C18.5870016,43 21.8641834,41.9643979 23.233752,40.4335079 C23.8696231,39.7581152 26.6087601,10.9413613 27.1957181,9.09528796 C27.3424576,8.69005236 28.6141998,8.82513089 28.9076788,8.14973822 C29.2500709,7.33926702 28.5652866,7.02408377 28.076155,6.66387435 Z" id="Shape-outline" fill="#000000" fill-rule="nonzero"></path>
                    <g id="body" transform="translate(1.000000, 1.000000)" fill="#FFFFFF" fill-rule="nonzero">
                        <path d="M25.5141674,7.15409096 C25.5141674,7.10974233 25.4660253,7.10974233 25.5141674,7.15409096 C18.3409919,8.97238477 6.59431535,8.79499025 1.20239823,7.28713684 C1.20239823,7.28713684 1.20239823,7.28713684 1.20239823,7.28713684 C0.86540341,7.15409096 0.480266474,7.0653937 0.383982239,6.97669644 C0.143271654,6.79930192 0.383982239,6.48886151 0.480266474,6.26711837 C0.480266474,6.26711837 0.480266474,6.26711837 0.480266474,6.26711837 C5.631473,8.61759573 22.1442192,7.90801766 26.4288676,6.13407248 C26.4288676,6.13407248 26.4288676,6.13407248 26.4770097,6.08972385 C27.2954257,6.57755877 26.3325834,6.93234781 25.5141674,7.15409096 Z" id="Path"></path>
                        <path d="M3.27250927,2.36443897 C4.95748337,-0.518221948 22.5293561,-0.784313725 24.1661881,2.05399856 C24.2143302,2.09834719 24.2143302,2.18704445 24.2143302,2.23139308 C23.2033458,4.6705677 3.60950409,4.53752182 3.22436715,2.63053075 C3.22436715,2.54183349 3.22436715,2.4087876 3.27250927,2.36443897 Z" id="Path"></path>
                        <path d="M0.528408591,5.29144852 C0.576550708,4.53752182 2.21338269,4.53752182 3.03179868,4.18273278 C3.03179868,4.49317319 3.03179868,4.75926496 3.03179868,4.84796222 C3.80207255,6.44451288 22.3367876,6.57755877 24.2143302,4.49317319 C24.3106144,4.40447593 24.3587566,4.09403552 24.3587566,3.73924648 C24.3587566,3.73924648 24.3587566,3.78359511 24.4068987,3.78359511 C25.0808883,4.09403552 26.7658624,4.09403552 26.6214361,5.06970537 C26.6214361,5.114054 26.5732939,5.15840263 26.5251518,5.24709989 C25.7067358,5.91232933 18.4372762,7.15409096 12.2750852,6.97669644 C4.71677278,6.75495329 0.769119176,6.00102659 0.528408591,5.38014578 C0.528408591,5.33579715 0.528408591,5.33579715 0.528408591,5.29144852 Z" id="Path"></path>
                        <path d="M20.8925241,37.9763885 C18.1965656,40.3712145 8.56814215,40.060774 5.96846782,37.5772508 C5.77589936,37.3998563 5.3426203,34.6502412 5.58333089,34.916333 C7.99043674,37.7989939 20.844382,36.7346268 21.2295189,35.1824248 C21.2295189,35.1380762 21.2295189,35.0937275 21.2776611,35.0050303 C21.0369505,36.8233241 20.8925241,37.9763885 20.8925241,37.9763885 Z" id="Path"></path>
                        <path d="M23.0589194,19.6604045 C23.0589194,19.6604045 23.0589194,19.6604045 23.0589194,19.6604045 C18.9186973,22.7648085 4.09092526,21.9221846 3.32065138,19.2612668 C2.83923021,17.5760189 2.11709846,10.1254491 1.87638787,8.1297608 C6.7387417,9.46021969 20.025966,9.50456832 24.6476093,8.04106355 C24.3106144,9.7706601 23.6847669,14.4716148 23.0589194,19.6604045 Z" id="Path"></path>
                    </g>
                    <path d="M9.17324133,26.0312082 C9.12845176,26.0524726 9.08926089,26.0843691 9.05977442,26.1246194 C9.03028795,26.1648697 9.01087914,26.211955 9.00341421,26.2616983 C8.99594928,26.3114417 9.00080149,26.3623242 9.01722433,26.4097892 L13.4103346,35.3480206 C13.4980475,35.5424373 13.6387614,35.7072358 13.8156802,35.8230504 C13.992599,35.9384853 14.198631,36 14.4087687,36 C14.6189065,36 14.8249385,35.9384853 15.0018573,35.8230504 C15.1787761,35.7076155 15.31949,35.542817 15.4072029,35.3480206 L20,26.0034887 L19.2012527,26.0034887 L16.1062934,32.3011465 C16.0372428,32.427973 15.9360931,32.5339149 15.8129218,32.6075806 C15.6901237,32.6812463 15.549783,32.7203575 15.4072029,32.7203575 C15.2646228,32.7203575 15.1242821,32.6816261 15.0014841,32.6075806 C14.878686,32.5339149 14.777163,32.427973 14.7081124,32.3011465 L11.7128099,26.2066389 C11.6934011,26.1717047 11.6687668,26.1398082 11.6404001,26.1120886 C11.6116601,26.0843691 11.5791877,26.0612061 11.5437293,26.0429796 C11.5082709,26.0251327 11.470573,26.012602 11.4313821,26.005767 C11.3921912,25.998932 11.3526271,25.9981726 11.3134363,26.0034887 L9.31656795,26.0034887 C9.26729943,26.0004509 9.2180309,26.0103236 9.17324133,26.0312082 Z" id="Path" fill="#FFFFFF"></path>
                </g>
                <g id="coffee-copy-2" transform="translate(58.000000, 0.000000)">
                    <path d="M35.8213012,8.36858639 C35.5716754,8.19895288 36.1957399,7.18115183 36.1333335,6.5026178 C36.0085206,5.71099476 34.26114,5.59790576 33.7618884,5.31518325 C33.3250433,5.08900524 33.699482,3.39267016 33.2626368,2.54450262 C32.1393208,0.508900524 22.5287278,0.0565445026 18.7219344,0 C14.7279218,0 4.68048361,1.30052356 3.99401268,3.22303665 C3.80679333,3.73193717 3.99401268,5.42827225 3.74438689,5.65445026 C3.12032241,6.16335079 1.31053541,6.27643979 1.12331607,7.18115183 C0.99850317,7.74659686 1.37294186,8.5382199 1.12331607,9.04712042 C0.99850317,9.27329843 0,9.61256545 0,10.347644 C0,11.365445 1.43534831,11.252356 1.49775475,11.6481675 C2.30903858,15.4931937 3.49476109,24.5968586 3.49476109,24.5968586 C3.49476109,24.5968586 6.05342547,48.9675393 6.86470929,50.0984293 C8.61208984,52.5863874 13.5421992,54 19.0963731,54 C23.7144503,54 27.8956823,52.6994764 29.6430629,50.7769634 C30.4543467,49.9287958 33.9491078,13.7403141 34.6979851,11.4219895 C34.8852045,10.913089 36.5077721,11.0827225 36.8822108,10.234555 C37.319056,9.21675393 36.4453657,8.82094241 35.8213012,8.36858639 Z" id="Shape-outline" fill="#000000" fill-rule="nonzero"></path>
                    <g id="body" transform="translate(1.000000, 1.000000)" fill="#FFFFFF" fill-rule="nonzero">
                        <path d="M33.0739207,9.12146597 C33.0739207,9.06492147 33.0115142,9.06492147 33.0739207,9.12146597 C23.7753599,11.4397906 8.54818656,11.2136126 1.55866437,9.29109948 C1.55866437,9.29109948 1.55866437,9.29109948 1.55866437,9.29109948 C1.12181924,9.12146597 0.622567651,9.00837696 0.497754755,8.89528796 C0.185722514,8.66910995 0.497754755,8.27329843 0.622567651,7.99057592 C0.622567651,7.99057592 0.622567651,7.99057592 0.622567651,7.99057592 C7.3000576,10.9874346 28.7054693,10.0827225 34.2596432,7.82094241 C34.2596432,7.82094241 34.2596432,7.82094241 34.3220496,7.76439791 C35.3829592,8.38638743 34.1348303,8.83874346 33.0739207,9.12146597 Z" id="Path"></path>
                        <path d="M4.24214164,3.01465969 C6.42636733,-0.660732984 29.2047209,-1 31.3265401,2.61884817 C31.3889466,2.67539267 31.3889466,2.78848168 31.3889466,2.84502618 C30.0784112,5.95497382 4.67898678,5.78534031 4.17973519,3.3539267 C4.17973519,3.2408377 4.17973519,3.07120419 4.24214164,3.01465969 Z" id="Path"></path>
                        <path d="M0.684974099,6.74659686 C0.747380547,5.78534031 2.86919978,5.78534031 3.9301094,5.33298429 C3.9301094,5.72879581 3.9301094,6.06806283 3.9301094,6.18115183 C4.92861257,8.21675393 28.9550951,8.38638743 31.3889466,5.72879581 C31.5137595,5.61570681 31.5761659,5.21989529 31.5761659,4.76753927 C31.5761659,4.76753927 31.5761659,4.82408377 31.6385724,4.82408377 C32.5122626,5.21989529 34.6964883,5.21989529 34.509269,6.46387435 C34.509269,6.52041885 34.4468625,6.57696335 34.3844561,6.69005236 C33.3235465,7.5382199 23.9001728,9.12146597 15.9121474,8.89528796 C6.11433508,8.61256545 0.997006339,7.6513089 0.684974099,6.85968586 C0.684974099,6.80314136 0.684974099,6.80314136 0.684974099,6.74659686 Z" id="Path"></path>
                        <path d="M27.0829016,48.4198953 C23.5881406,51.4732984 11.1068509,51.0774869 7.73690274,47.9109948 C7.48727694,47.6848168 6.92561891,44.1790576 7.23765115,44.5183246 C10.3579736,48.1937173 27.0204952,46.8366492 27.5197468,44.8575916 C27.5197468,44.8010471 27.5197468,44.7445026 27.5821532,44.6314136 C27.270121,46.9497382 27.0829016,48.4198953 27.0829016,48.4198953 Z" id="Path"></path>
                        <path d="M29.8911918,25.0670157 C29.8911918,25.0670157 29.8911918,25.0670157 29.8911918,25.0670157 C24.5242373,29.0251309 5.30305126,27.9507853 4.30454809,24.5581152 C3.68048361,22.4094241 2.74438689,12.9099476 2.43235465,10.365445 C8.73540591,12.0617801 25.9595856,12.1183246 31.9506046,10.252356 C31.5137595,12.4575916 30.7024756,18.4513089 29.8911918,25.0670157 Z" id="Path"></path>
                    </g>
                    <path d="M11.220489,32.0405707 C11.1634841,32.0682143 11.1136048,32.1096798 11.0760765,32.1620052 C11.0385483,32.2143306 11.0138462,32.2755415 11.0043454,32.3402078 C10.9948445,32.4048742 11.0010201,32.4710214 11.0219219,32.5327259 L16.6131531,44.1524268 C16.7247877,44.4051685 16.9038781,44.6194065 17.1290475,44.7699656 C17.3542169,44.9200309 17.6164395,45 17.8838875,45 C18.1513355,45 18.4135581,44.9200309 18.6387275,44.7699656 C18.8638969,44.6199002 19.0429873,44.4056621 19.1546219,44.1524268 L25,32.0045353 L23.9834125,32.0045353 L20.0443735,40.1914905 C19.9564909,40.3563649 19.8277548,40.4940894 19.6709913,40.5898548 C19.5147029,40.6856202 19.3360875,40.7364648 19.1546219,40.7364648 C18.9731563,40.7364648 18.7945409,40.6861139 18.6382524,40.5898548 C18.481964,40.4940894 18.3527529,40.3563649 18.2648703,40.1914905 L14.4526672,32.2686306 C14.427965,32.2232161 14.3966123,32.1817507 14.3605092,32.1457152 C14.3239311,32.1096798 14.2826025,32.079568 14.2374736,32.0558734 C14.1923448,32.0326725 14.1443656,32.0163825 14.0944863,32.0074971 C14.044607,31.9986116 13.9942527,31.9976244 13.9443734,32.0045353 L11.4029047,32.0045353 C11.3401993,32.0005862 11.2774939,32.0134207 11.220489,32.0405707 Z" id="Path" fill="#FFFFFF"></path>
                </g>
            </g>
        </g>
    </g>
</svg>