<svg width="100%" height="100%" viewBox="0 0 166 218" version="1.1" xmlns="http://www.w3.org/2000/svg" xmlns:xlink="http://www.w3.org/1999/xlink">
    <g id="Page-1" stroke="none" stroke-width="1" fill="none" fill-rule="evenodd">
        <g id="iPhone-SE-Copy" transform="translate(-77.000000, -26.000000)">
            <g id="coffeem" transform="translate(77.000000, 26.000000)">
                <path d="M160.711784,37.503665 C159.591841,36.7434552 162.391698,32.1821987 162.111712,29.141361 C161.551741,25.593717 153.712141,25.0869107 151.472256,23.8198953 C149.512356,22.8062828 151.192271,15.2041885 149.232371,11.403141 C144.192628,2.28062794 101.074833,0.25340281 83.9957058,0 C66.0766219,0 20.9989264,5.82827193 17.9190839,14.4439787 C17.0791269,16.7246074 17.9190839,24.3267016 16.7991412,25.3403142 C13.9992843,27.6209421 5.87969941,28.1277484 5.03974235,32.1821987 C4.47977098,34.7162301 6.15968509,38.2638741 5.03974235,40.5445027 C4.47977098,41.5581152 0,43.0785341 0,46.3727746 C0,50.9340312 6.43967078,50.4272249 6.71965649,52.2010472 C10.3594704,69.4324608 25.4786974,204.967539 29.1185114,210.035602 C36.9581106,221.18534 123.473688,218.651309 131.313287,210.035602 C134.953101,206.234555 152.312213,61.5769631 155.672042,51.1874346 C156.511998,48.906806 163.791626,49.6670158 165.47154,45.8659683 C167.431441,41.3047118 163.511641,39.5308901 160.711784,37.503665 Z" id="Shape-outline" fill="#FFFFFF"></path>
                <g id="body" transform="translate(5.000000, 5.000000)">
                    <path d="M147.304952,42.9179498 C147.304952,42.664297 147.024642,42.664297 147.304952,42.9179498 C105.538752,53.3177134 37.143095,52.3031023 5.74836743,43.6789081 C5.74836743,43.6789081 5.74836743,43.6789081 5.74836743,43.6789081 C3.78619695,42.9179498 1.54371641,42.4106442 0.983096274,41.9033387 C-0.418454067,40.8887276 0.983096274,39.1131583 1.54371641,37.8448944 C1.54371641,37.8448944 1.54371641,37.8448944 1.54371641,37.8448944 C31.5368937,51.2884913 127.683247,47.2300469 152.630843,37.0839361 C152.630843,37.0839361 152.630843,37.0839361 152.911153,36.8302833 C157.676424,39.6204638 152.070223,41.649686 147.304952,42.9179498 Z" id="Path" fill="#351F06"></path>
                    <path d="M17.8017004,13.5234505 C27.6125528,-2.9639796 129.925728,-4.48589623 139.45627,11.7478811 C139.73658,12.0015339 139.73658,12.5088394 139.73658,12.7624922 C133.850068,26.7133946 19.7638709,25.9524363 17.5213903,15.0453671 C17.5213903,14.5380616 17.5213903,13.7771033 17.8017004,13.5234505 Z" id="Path" fill="#372106"></path>
                    <path d="M1.82402648,30.2645334 C2.10433655,25.9524363 11.6348789,25.9524363 16.40015,23.9232141 C16.40015,25.6987836 16.40015,27.2207002 16.40015,27.7280057 C20.8851111,36.8595055 128.804487,37.6204638 139.73658,25.6987836 C140.2972,25.191478 140.57751,23.4159086 140.57751,21.3866864 C140.57751,21.3866864 140.57751,21.6403392 140.85782,21.6403392 C144.782161,23.4159086 154.593014,23.4159086 153.752084,28.9962695 C153.752084,29.2499223 153.471773,29.5035751 153.191463,30.0108807 C148.426192,33.8156722 106.099372,40.9179498 70.2196833,39.9033387 C26.2110024,38.6350749 3.22557682,34.3229778 1.82402648,30.7718389 C1.82402648,30.5181862 1.82402648,30.5181862 1.82402648,30.2645334 Z" id="Path" fill="#382206"></path>
                </g>
            </g>
        </g>
    </g>
</svg>