<svg width="100%" height="100%" viewBox="0 0 250 593" version="1.1" xmlns="http://www.w3.org/2000/svg" xmlns:xlink="http://www.w3.org/1999/xlink">
    <g id="Page-1" stroke="none" stroke-width="1" fill="none" fill-rule="evenodd">
        <g id="Buy-me-coffee/donate-Copy-4" transform="translate(-213.000000, -156.000000)">
            <g id="coffee-copy-6" transform="translate(213.000000, 156.000000)">
                <path d="M242.035819,283.612886 C240.349158,282.465327 244.56581,275.579976 244.144145,270.989742 C243.300815,265.634469 231.494189,264.86943 228.120868,262.956833 C225.169211,261.426755 227.699203,249.95117 224.747546,244.213377 C217.157573,230.442675 152.221134,227.382519 126.499557,227 C99.5129848,227 31.6248892,235.797948 26.9865722,248.803611 C25.7215766,252.246287 26.9865722,263.721872 25.2999114,265.25195 C21.0832595,268.694625 8.85496899,269.459664 7.58997342,275.579976 C6.74664304,279.405171 9.27663418,284.760444 7.58997342,288.20312 C6.74664304,289.733198 0,292.028315 0,297.001068 C0,303.886419 9.69829937,303.12138 10.1199646,305.799017 C15.601612,331.810343 23.6132506,393.395982 23.6132506,393.395982 C23.6132506,393.395982 40.9015234,558.261887 46.3831709,565.912277 C58.1897962,582.743135 91.5013462,592.306122 129.029548,592.306122 C160.232772,592.306122 188.48434,583.508174 200.290965,570.502511 C205.772613,564.764718 229.385863,319.952238 234.445846,304.268939 C235.710841,300.826263 246.674136,301.973822 249.204127,296.236029 C252.155784,289.350678 246.252471,286.673042 242.035819,283.612886 Z" id="Shape-outline" fill="#FFFFFF" fill-rule="nonzero"></path>
                <g id="body" transform="translate(8.163265, 233.122449)" fill-rule="nonzero">
                    <path d="M221.432605,61.8275629 C221.432605,61.4442902 221.011236,61.4442902 221.432605,61.8275629 C158.648575,77.5417432 55.834459,76.0086524 8.64109427,62.977381 C8.64109427,62.977381 8.64109427,62.977381 8.64109427,62.977381 C5.69150897,61.8275629 2.32055435,61.0610175 1.47781569,60.2944722 C-0.629030952,58.7613814 1.47781569,56.0784726 2.32055435,54.1621091 C2.32055435,54.1621091 2.32055435,54.1621091 2.32055435,54.1621091 C47.4070725,74.4755617 191.936752,68.3431986 229.438622,53.0122911 C229.438622,53.0122911 229.438622,53.0122911 229.859992,52.6290184 C237.02327,56.845018 228.595884,59.9111995 221.432605,61.8275629 Z" id="Path" fill="#351F06"></path>
                    <path d="M26.7599754,20.4341125 C41.5079019,-4.47861235 195.307707,-6.77824849 209.634264,17.7512036 C210.055633,18.1344763 210.055633,18.9010217 210.055633,19.2842944 C201.206877,40.3642923 29.7095607,39.2144742 26.3386061,22.7337486 C26.3386061,21.9672032 26.3386061,20.8173852 26.7599754,20.4341125 Z" id="Path" stroke="#979797" fill="#372106"></path>
                    <path d="M2.74192367,45.73011 C3.163293,39.2144742 17.4898502,39.2144742 24.6531287,36.1482927 C24.6531287,38.8312016 24.6531287,41.1308377 24.6531287,41.8973831 C31.395038,55.6951999 193.622229,56.845018 210.055633,38.8312016 C210.898372,38.0646562 211.319741,35.3817474 211.319741,32.3155658 C211.319741,32.3155658 211.319741,32.6988385 211.74111,32.6988385 C217.640281,35.3817474 232.388208,35.3817474 231.1241,43.8137465 C231.1241,44.1970192 230.70273,44.5802919 230.281361,45.3468373 C223.118082,51.0959276 159.491314,61.8275629 105.55604,60.2944722 C39.4010552,58.3781087 4.84877031,51.862473 2.74192367,46.4966553 C2.74192367,46.1133827 2.74192367,46.1133827 2.74192367,45.73011 Z" id="Path" fill="#382206"></path>
                    <path d="M180.98115,328.202082 C157.384467,348.898807 73.1106015,346.215899 50.3566578,324.752628 C48.6711805,323.219537 44.8788565,299.45663 46.9857031,301.756267 C68.0541696,326.668991 180.55978,317.470447 183.930735,304.055903 C183.930735,303.67263 183.930735,303.289357 184.352104,302.522812 C182.245258,318.236992 180.98115,328.202082 180.98115,328.202082 Z" id="Path" fill="#FFFFFF"></path>
                </g>
                <g id="smoke" transform="translate(28.000000, 0.000000)" fill="#FFFFFF" fill-opacity="0.3">
                    <path d="M115.176616,23.6661308 C104.139592,8.22503132 91.9200287,0.602210055 91.3287595,0.4067531 C90.1462211,-0.375074723 88.766593,0.0158391886 87.9782341,1.18858092 C87.1898752,2.36132266 87.5840547,3.72952134 88.766593,4.51134917 C88.9636828,4.70680612 109.658104,18.1933361 112.023181,40.6708859 C113.796988,56.8938133 105.716309,73.8985684 88.3724136,91.0987805 C70.2401588,109.08082 61.7653005,127.453774 63.1449286,145.631271 C65.3129156,172.408874 87.5840547,188.827258 88.5695033,189.609086 C88.9636828,190 89.5549519,190 89.9491314,190 C90.7374903,190 91.3287595,189.804543 91.7229389,189.218172 C92.5112978,188.240887 92.5112978,186.872689 91.5258492,185.895404 C82.6568115,177.099841 78.5179273,169.086106 78.715017,161.658741 C79.1091964,149.735867 90.1462211,139.767562 101.971605,129.212887 C113.599899,118.658211 125.819462,107.908079 128.775807,94.0306348 C135.673948,61.3893232 125.228192,37.7390316 115.176616,23.6661308 Z" id="Path"></path>
                    <path d="M180.952872,122.273465 C180.174642,121.747832 179.266706,122.010649 178.747886,122.799099 C178.229066,123.587548 178.488476,124.507406 179.266706,125.03304 C179.396411,125.03304 186.27078,129.763738 187.04901,137.385419 C187.56783,142.904567 184.973729,148.686531 179.007296,154.599904 C172.522043,161.170319 169.538826,167.872141 170.057647,174.573964 C170.835877,184.429586 178.877591,190.474367 179.266706,190.737183 C179.526116,191 179.915232,191 180.174642,191 C180.693462,191 181.082577,190.868592 181.341987,190.474367 C181.860807,189.817325 181.860807,188.897467 181.212282,188.240426 C178.229066,185.218035 176.932015,182.58987 176.932015,180.22452 C177.06172,176.282272 180.823167,172.865656 184.714319,169.186224 C188.864881,165.375384 193.145148,161.433135 194.182788,156.176804 C198.981876,133.705987 181.082577,122.404874 180.952872,122.273465 Z" id="Path"></path>
                    <path d="M11.2835424,93.2456715 C8.31569836,90.229026 7.02533137,87.605856 7.02533137,85.2450029 C7.15436807,81.3102479 10.8964323,77.9001269 14.7675333,74.2276889 C18.8967076,70.4240924 23.1549187,66.4893374 24.1872123,61.2429973 C28.9615701,38.6837352 11.1545057,27.4041042 10.8964323,27.2729457 C10.1222121,26.7483117 9.21895525,27.0106287 8.70280845,27.7975797 C8.18666166,28.5845307 8.44473506,29.5026402 9.21895525,30.0272742 C9.34799195,30.0272742 16.186937,34.6178217 16.9611572,42.3561732 C17.477304,47.8648303 14.89657,53.6358043 8.96088185,59.6690953 C2.50904692,66.2270204 -0.458797151,72.9161039 0.0573496438,79.6051874 C0.831569836,89.442075 8.83184515,95.475366 9.21895525,95.737683 C9.47702865,96 9.86413874,96 10.1222121,96 C10.6383589,96 11.025469,95.8688415 11.2835424,95.475366 C11.9287259,94.8195735 11.7996892,93.7703055 11.2835424,93.2456715 Z" id="Path"></path>
                </g>
            </g>
        </g>
    </g>
</svg>